<?xml version="1.0" encoding="utf-8"?>
<!-- Generator: Adobe Illustrator 19.2.1, SVG Export Plug-In . SVG Version: 6.00 Build 0)  -->
<svg version="1.1" id="sprite" xmlns="http://www.w3.org/2000/svg" xmlns:xlink="http://www.w3.org/1999/xlink" x="0px" y="0px"
	 width="126px" height="26px" viewBox="0 0 126 26" style="enable-background:new 0 0 126 26;" xml:space="preserve">
<style type="text/css">
	.st0{fill:#FFFFFF;}
</style>
<path id="logo_1_" class="st0" d="M119.1,6.4h1.8l-0.1,0.2l-9.2,19h-1.8l4.3-8.9l-5.4-10.3h2v0.1l4.3,8.3L119.1,6.4z M102.6,6.2
	c-0.9,0-1.7,0.2-2.4,0.6c-0.6,0.4-1.2,0.9-1.7,1.5V6.6h-1.6v12.7l1.7-0.1v-8.9c0.5-0.7,1-1.3,1.7-1.8c0.6-0.5,1.3-0.7,2.2-0.7
	c1.2,0,2,0.2,2.3,0.9c0.5,0.7,0.7,1.8,0.7,3.3v7.2h1.6v-7.6c0-1.7-0.4-2.9-1.2-3.9C105.2,6.6,104.1,6.2,102.6,6.2z M92.9,7.8
	c1.3,1.3,1.8,2.8,1.8,4.8c0,0.9-0.2,1.7-0.5,2.4c-0.2,0.7-0.7,1.5-1.5,2.2c-0.6,0.6-1.3,1.1-2.1,1.3C89.9,18.7,89,19,88.2,19
	c-2,0-3.6-0.6-4.8-1.8c-1.3-1.2-2-2.7-2-4.8c0-2,0.6-3.6,1.8-4.8c1.3-1.2,2.9-1.8,4.8-1.8C90,6,91.6,6.6,92.9,7.8z M92.9,12.7
	c0-1.3-0.5-2.6-1.5-3.7c-0.9-0.9-2-1.5-3.3-1.5S85.8,8,84.8,9c-1,0.9-1.6,2.2-1.6,3.7s0.5,2.6,1.5,3.6s2.1,1.5,3.4,1.5
	s2.4-0.5,3.4-1.5C92.4,15.3,92.9,14.1,92.9,12.7z M75.2,6.1c-0.7,0-1.5,0.2-2.4,0.6c-0.9,0.5-1.5,1-2.1,1.8c-0.4-0.7-1-1.5-1.6-1.8
	c-0.7-0.4-1.5-0.6-2.4-0.6c-0.7,0-1.5,0.2-2.4,0.6c-0.5,0.2-1,0.7-1.6,1.5V6.5H61v12.9l1.6-0.2V10c0.5-1,1.1-1.6,1.7-1.8
	c0.7-0.5,1.6-0.7,2.3-0.7c1,0,1.7,0.4,2.2,1c0.5,0.7,0.7,1.8,0.7,3.3V19h1.6v-9c0.4-0.7,0.9-1.3,1.6-1.8s1.6-0.7,2.3-0.7
	c1,0,1.7,0.4,2.2,1c0.5,0.7,0.7,1.8,0.7,3.3V19h1.6v-7.6c0-1.7-0.4-3.1-1.1-3.9C77.6,6.5,76.6,6.1,75.2,6.1z M58.8,6.7
	c-0.1-0.1-0.2-0.1-0.4-0.2l0,0c-0.4-0.1-0.7-0.2-1.2-0.2c-0.7,0-1.5,0.2-2.1,0.7s-1.2,1.2-1.8,2.2V6.5h-1.6v12.7h0.2v-0.1h1.3v-8
	C53.9,9.8,54.5,9,55,8.5c0.6-0.5,1.1-0.7,1.6-0.7c0.2,0,0.5,0.1,0.7,0.2c0.2,0.2,0.6,0.5,1,0.7l0.4,0.1l0.9-1.6l-0.1-0.1
	C59.3,7,59,6.9,58.8,6.7z M49.3,17l0.5-0.5v1.7l0,0c-0.4,0.4-0.7,0.7-1.1,0.9c-0.2,0.2-0.7,0.2-1,0.2c-0.4,0-0.9-0.1-1-0.2l0,0
	c-0.2-0.4-0.2-0.7-0.2-1.1c-0.6,0.4-1.2,0.7-1.7,1.1l0,0c-0.6,0.2-1.2,0.2-1.8,0.2c-1.1,0-2-0.2-2.6-0.9c-0.7-0.7-1-1.5-1-2.4
	c0-1.3,0.6-2.6,1.8-3.4c1.6-1,3.3-1.3,5.3-1.5V9.9c0-0.9-0.2-1.5-0.7-2c-0.4-0.2-1.1-0.7-2.1-0.7c-0.6,0-1.2,0.1-1.7,0.4
	c-0.9,0.4-1.5,0.7-2,1.2L39.8,9V7.3h0.1c0.5-0.2,0.9-0.5,1.2-0.7c0.2-0.1,0.5-0.2,0.7-0.4C42.6,6,43.3,6,43.9,6c1.6,0,2.6,0.4,3.2,1
	c0.6,0.7,1,2,1,3.4V17c0,0.2,0,0.4,0.1,0.5l0.2,0.2C48.5,17.6,48.8,17.5,49.3,17z M46.4,12.6c-1.7,0-3.1,0.4-4,1s-1.5,1.3-1.5,2.3
	c0,0.6,0.2,1.1,0.6,1.3l0,0c0.2,0.2,0.7,0.6,1.7,0.6c0.5,0,1.1-0.1,1.5-0.4l0.2-0.1c0.4-0.2,0.9-0.5,1.5-1
	C46.4,16.4,46.4,12.6,46.4,12.6z M35,8.8H22.6V0h-1.8v19.3h1.7v-8.9h12.4v8.9h1.8V0H35V8.8z M16.8,9.1c0,1.2-0.1,2.4-0.1,2.4
	s-8.7,0-11.6,0c0,1.6,1.5,4.8,5.1,4.8c2.2,0,4.9-0.6,6-1.8c0,1.3,0,2,0,2.8c-0.9,1.1-2.7,2-6.9,2C4.5,19.1,0,15.9,0,10.9
	c0-4.2,3.1-8.3,8.7-8.3S16.8,7.5,16.8,9.1z M12.6,8.9c0-2.1-2.1-3.4-3.8-3.4S5.3,7,5.3,8.9C8.4,8.9,9.5,8.9,12.6,8.9z M124.6,3.8
	c0.1,0.4,0.1,0.5,0.1,0.5h-0.5c-0.1-0.1-0.1-0.2-0.1-0.5c0-0.2-0.1-0.4-0.5-0.4h-0.2v0.9h-0.5V2.2c0.2,0,0.5-0.1,0.9-0.1
	s0.6,0.1,0.7,0.1c0.1,0.1,0.2,0.2,0.2,0.5s-0.2,0.5-0.5,0.5l0,0C124.4,3.3,124.5,3.6,124.6,3.8z M124.1,2.8c0-0.2-0.1-0.4-0.5-0.4
	c-0.1,0-0.2,0-0.2,0V3h0.2C123.9,3.1,124.1,3.1,124.1,2.8z M126,3.2c0,1.2-1,2.2-2.2,2.2s-2.3-1-2.3-2.2s1-2.2,2.3-2.2
	C125,1,126,2,126,3.2z M125.4,3.2c0-1-0.7-1.7-1.7-1.7S122,2.2,122,3.2s0.7,1.7,1.7,1.7C124.6,5,125.4,4.2,125.4,3.2z"/>
</svg>
