<?xml version="1.0" encoding="utf-8"?>
<!-- Generator: Adobe Illustrator 19.2.1, SVG Export Plug-In . SVG Version: 6.00 Build 0)  -->
<svg version="1.1" id="icons" xmlns="http://www.w3.org/2000/svg" xmlns:xlink="http://www.w3.org/1999/xlink" x="0px" y="0px"
	 width="275px" height="50px" viewBox="0 0 275 50" enable-background="new 0 0 275 50" xml:space="preserve">
<path id="fork" fill="#CCCCCC" d="M269.6,26.4c-0.3-0.3-0.6-0.4-1.1-0.4c-0.4,0-0.8,0.1-1.1,0.4c-0.3,0.3-0.4,0.6-0.4,1.1
	c0,0.3,0.1,0.5,0.2,0.8c0.1,0.2,0.3,0.4,0.5,0.5c0,0.3,0,0.5-0.1,0.7c0,0.2-0.1,0.4-0.2,0.5c-0.1,0.2-0.2,0.3-0.3,0.4
	c-0.1,0.1-0.3,0.2-0.5,0.3c-0.2,0.1-0.4,0.2-0.6,0.2c-0.2,0.1-0.4,0.1-0.7,0.2c-0.5,0.2-0.9,0.3-1.2,0.4v-3.9
	c0.2-0.1,0.4-0.3,0.5-0.5c0.1-0.2,0.2-0.5,0.2-0.8c0-0.4-0.1-0.8-0.4-1.1c-0.3-0.3-0.6-0.4-1.1-0.4c-0.4,0-0.8,0.1-1.1,0.4
	c-0.3,0.3-0.4,0.6-0.4,1.1c0,0.3,0.1,0.5,0.2,0.8c0.1,0.2,0.3,0.4,0.5,0.5v6.4c-0.2,0.1-0.4,0.3-0.5,0.5c-0.1,0.2-0.2,0.5-0.2,0.8
	c0,0.4,0.1,0.8,0.4,1.1s0.6,0.4,1.1,0.4c0.4,0,0.8-0.1,1.1-0.4c0.3-0.3,0.4-0.6,0.4-1.1c0-0.3-0.1-0.5-0.2-0.8
	c-0.1-0.2-0.3-0.4-0.5-0.5V34c0-0.4,0.1-0.6,0.3-0.8c0.2-0.2,0.7-0.3,1.3-0.6c0.7-0.2,1.2-0.4,1.6-0.6c1.2-0.7,1.8-1.7,1.8-3.2
	c0.2-0.1,0.4-0.3,0.5-0.5c0.1-0.2,0.2-0.5,0.2-0.8C270,27.1,269.8,26.7,269.6,26.4z M264,36c-0.1,0.1-0.3,0.2-0.5,0.2
	c-0.2,0-0.4-0.1-0.5-0.2c-0.1-0.1-0.2-0.3-0.2-0.5c0-0.2,0.1-0.4,0.2-0.5c0.1-0.1,0.3-0.2,0.5-0.2c0.2,0,0.4,0.1,0.5,0.2
	c0.1,0.1,0.2,0.3,0.2,0.5C264.2,35.7,264.2,35.9,264,36z M264,27c-0.1,0.1-0.3,0.2-0.5,0.2c-0.2,0-0.4-0.1-0.5-0.2
	c-0.1-0.1-0.2-0.3-0.2-0.5c0-0.2,0.1-0.4,0.2-0.5c0.1-0.1,0.3-0.2,0.5-0.2c0.2,0,0.4,0.1,0.5,0.2c0.1,0.1,0.2,0.3,0.2,0.5
	C264.2,26.7,264.2,26.9,264,27z M269,28c-0.1,0.1-0.3,0.2-0.5,0.2c-0.2,0-0.4-0.1-0.5-0.2c-0.1-0.1-0.2-0.3-0.2-0.5
	c0-0.2,0.1-0.4,0.2-0.5c0.1-0.1,0.3-0.2,0.5-0.2c0.2,0,0.4,0.1,0.5,0.2c0.1,0.1,0.2,0.3,0.2,0.5C269.2,27.7,269.2,27.9,269,28z"/>
<path id="star" fill="#CCCCCC" d="M261.5,29.2l-3.3-0.3c-0.2,0-0.4-0.2-0.5-0.4l-1.2-2.9c-0.2-0.5-0.9-0.5-1.1,0l-1.2,2.9
	c-0.1,0.2-0.3,0.3-0.5,0.4l-3.3,0.3c-0.5,0-0.7,0.7-0.3,1l2.5,2.2c0.2,0.1,0.2,0.4,0.2,0.6l-0.7,3.1c-0.1,0.5,0.4,0.9,0.8,0.6
	l2.8-1.6c0.2-0.1,0.4-0.1,0.6,0l2.8,1.6c0.4,0.3,1-0.1,0.8-0.6l-0.7-3.1c0-0.2,0-0.4,0.2-0.6l2.5-2.2
	C262.2,29.8,262,29.2,261.5,29.2z"/>
<path id="web" fill="#FFFFFF" d="M275,12.8c0,5.5-3.6,10.2-8.5,11.9c-0.6,0.1-0.9-0.3-0.9-0.6c0-0.4,0-1.8,0-3.4
	c0-1.2-0.4-1.9-0.8-2.3c2.8-0.3,5.7-1.4,5.7-6.2c0-1.4-0.5-2.5-1.3-3.4c0.1-0.3,0.6-1.6-0.1-3.3c0,0-1-0.3-3.4,1.3
	c-1-0.3-2.1-0.4-3.1-0.4c-1.1,0-2.1,0.1-3.1,0.4c-2.4-1.6-3.4-1.3-3.4-1.3c-0.7,1.7-0.3,3-0.1,3.3c-0.8,0.9-1.3,2-1.3,3.4
	c0,4.8,2.9,5.9,5.7,6.2c-0.4,0.3-0.7,0.9-0.8,1.7c-0.7,0.3-2.5,0.9-3.6-1c0,0-0.7-1.2-1.9-1.3c0,0-1.2,0-0.1,0.8
	c0,0,0.8,0.4,1.4,1.8c0,0,0.7,2.2,4.2,1.5c0,1,0,2,0,2.3s-0.2,0.7-0.9,0.6c-5-1.7-8.5-6.3-8.5-11.9c0-6.9,5.6-12.5,12.5-12.5
	C269.4,0.3,275,5.9,275,12.8z M254.7,18.3c0-0.1,0-0.1-0.1-0.2c-0.1,0-0.2,0-0.2,0c0,0.1,0,0.1,0.1,0.2
	C254.6,18.3,254.7,18.3,254.7,18.3L254.7,18.3z M255.3,18.8c0.1-0.1,0-0.2,0-0.3c-0.1-0.1-0.2-0.1-0.3-0.1c-0.1,0.1,0,0.2,0,0.3
	C255.1,18.9,255.2,18.9,255.3,18.8L255.3,18.8z M255.7,19.6c0.1-0.1,0.1-0.2,0-0.3c-0.1-0.1-0.2-0.2-0.3-0.1s-0.1,0.2,0,0.3
	C255.5,19.6,255.7,19.6,255.7,19.6L255.7,19.6z M256.4,20.2c0.1-0.1,0-0.2-0.1-0.3c-0.1-0.1-0.3-0.1-0.3,0c-0.1,0.1,0,0.2,0.1,0.3
	C256.2,20.3,256.3,20.3,256.4,20.2L256.4,20.2z M257.3,20.7c0-0.1-0.1-0.2-0.2-0.3c-0.1,0-0.3,0-0.3,0.1s0.1,0.2,0.2,0.3
	C257.2,20.8,257.3,20.7,257.3,20.7L257.3,20.7z M258.4,20.7c0-0.1-0.1-0.2-0.3-0.2c-0.1,0-0.3,0.1-0.3,0.2s0.1,0.2,0.3,0.2
	C258.3,20.9,258.4,20.8,258.4,20.7L258.4,20.7z M259.3,20.6c0-0.1-0.2-0.2-0.3-0.1c-0.1,0-0.2,0.1-0.2,0.2s0.2,0.2,0.3,0.1
	C259.2,20.8,259.3,20.7,259.3,20.6L259.3,20.6z"/>
<path id="ios_1_" fill="#F7B74B" d="M250,37.8c0,5.5-3.6,10.2-8.5,11.9c-0.6,0.1-0.9-0.3-0.9-0.6c0-0.4,0-1.8,0-3.4
	c0-1.2-0.4-1.9-0.8-2.3c2.8-0.3,5.7-1.4,5.7-6.2c0-1.4-0.5-2.5-1.3-3.4c0.1-0.3,0.6-1.6-0.1-3.3c0,0-1-0.3-3.4,1.3
	c-1-0.3-2.1-0.4-3.1-0.4c-1.1,0-2.1,0.1-3.1,0.4c-2.4-1.6-3.4-1.3-3.4-1.3c-0.7,1.7-0.3,3-0.1,3.3c-0.8,0.9-1.3,2-1.3,3.4
	c0,4.8,2.9,5.9,5.7,6.2c-0.4,0.3-0.7,0.9-0.8,1.7c-0.7,0.3-2.5,0.9-3.6-1c0,0-0.7-1.2-1.9-1.3c0,0-1.2,0-0.1,0.8
	c0,0,0.8,0.4,1.4,1.8c0,0,0.7,2.2,4.2,1.5c0,1,0,2,0,2.3s-0.2,0.7-0.9,0.6c-5-1.7-8.5-6.3-8.5-11.9c0-6.9,5.6-12.5,12.5-12.5
	C244.4,25.3,250,30.9,250,37.8z M229.7,43.3c0-0.1,0-0.1-0.1-0.2c-0.1,0-0.2,0-0.2,0c0,0.1,0,0.1,0.1,0.2
	C229.6,43.3,229.7,43.3,229.7,43.3L229.7,43.3z M230.2,43.8c0.1-0.1,0-0.2,0-0.3c-0.1-0.1-0.2-0.1-0.3-0.1c-0.1,0.1,0,0.2,0,0.3
	C230.1,43.9,230.2,43.9,230.2,43.8L230.2,43.8z M230.7,44.6c0.1-0.1,0.1-0.2,0-0.3s-0.2-0.2-0.3-0.1c-0.1,0.1-0.1,0.2,0,0.3
	S230.7,44.6,230.7,44.6L230.7,44.6z M231.4,45.2c0.1-0.1,0-0.2-0.1-0.3s-0.3-0.1-0.3,0c-0.1,0.1,0,0.2,0.1,0.3
	S231.3,45.3,231.4,45.2L231.4,45.2z M232.3,45.7c0-0.1-0.1-0.2-0.2-0.3c-0.1,0-0.3,0-0.3,0.1s0.1,0.2,0.2,0.3
	C232.2,45.8,232.3,45.7,232.3,45.7L232.3,45.7z M233.4,45.7c0-0.1-0.1-0.2-0.3-0.2c-0.1,0-0.3,0.1-0.3,0.2c0,0.1,0.1,0.2,0.3,0.2
	C233.2,45.9,233.4,45.8,233.4,45.7L233.4,45.7z M234.3,45.6c0-0.1-0.2-0.2-0.3-0.1c-0.1,0-0.2,0.1-0.2,0.2c0,0.1,0.2,0.2,0.3,0.1
	C234.2,45.8,234.3,45.7,234.3,45.6L234.3,45.6z"/>
<path id="backend_1_" fill="#C32B3F" d="M250,12.8c0,5.5-3.6,10.2-8.5,11.9c-0.6,0.1-0.9-0.3-0.9-0.6c0-0.4,0-1.8,0-3.4
	c0-1.2-0.4-1.9-0.8-2.3c2.8-0.3,5.7-1.4,5.7-6.2c0-1.4-0.5-2.5-1.3-3.4c0.1-0.3,0.6-1.6-0.1-3.3c0,0-1-0.3-3.4,1.3
	c-1-0.3-2.1-0.4-3.1-0.4c-1.1,0-2.1,0.1-3.1,0.4c-2.4-1.6-3.4-1.3-3.4-1.3c-0.7,1.7-0.3,3-0.1,3.3c-0.8,0.9-1.3,2-1.3,3.4
	c0,4.8,2.9,5.9,5.7,6.2c-0.4,0.3-0.7,0.9-0.8,1.7c-0.7,0.3-2.5,0.9-3.6-1c0,0-0.7-1.2-1.9-1.3c0,0-1.2,0-0.1,0.8
	c0,0,0.8,0.4,1.4,1.8c0,0,0.7,2.2,4.2,1.5c0,1,0,2,0,2.3s-0.2,0.7-0.9,0.6c-5-1.7-8.5-6.3-8.5-11.9c0-6.9,5.6-12.5,12.5-12.5
	C244.4,0.3,250,5.9,250,12.8z M229.7,18.3c0-0.1,0-0.1-0.1-0.2c-0.1,0-0.2,0-0.2,0c0,0.1,0,0.1,0.1,0.2
	C229.6,18.3,229.7,18.3,229.7,18.3L229.7,18.3z M230.2,18.8c0.1-0.1,0-0.2,0-0.3c-0.1-0.1-0.2-0.1-0.3-0.1c-0.1,0.1,0,0.2,0,0.3
	C230.1,18.9,230.2,18.9,230.2,18.8L230.2,18.8z M230.7,19.6c0.1-0.1,0.1-0.2,0-0.3c-0.1-0.1-0.2-0.2-0.3-0.1s-0.1,0.2,0,0.3
	C230.5,19.6,230.7,19.6,230.7,19.6L230.7,19.6z M231.4,20.2c0.1-0.1,0-0.2-0.1-0.3c-0.1-0.1-0.3-0.1-0.3,0c-0.1,0.1,0,0.2,0.1,0.3
	S231.3,20.3,231.4,20.2L231.4,20.2z M232.3,20.7c0-0.1-0.1-0.2-0.2-0.3c-0.1,0-0.3,0-0.3,0.1s0.1,0.2,0.2,0.3
	C232.2,20.8,232.3,20.7,232.3,20.7L232.3,20.7z M233.4,20.7c0-0.1-0.1-0.2-0.3-0.2c-0.1,0-0.3,0.1-0.3,0.2s0.1,0.2,0.3,0.2
	C233.2,20.9,233.4,20.8,233.4,20.7L233.4,20.7z M234.3,20.6c0-0.1-0.2-0.2-0.3-0.1c-0.1,0-0.2,0.1-0.2,0.2s0.2,0.2,0.3,0.1
	C234.2,20.8,234.3,20.7,234.3,20.6L234.3,20.6z"/>
<path id="android_1_" fill="#9BB956" d="M225,12.8c0,5.5-3.6,10.2-8.5,11.9c-0.6,0.1-0.9-0.3-0.9-0.6c0-0.4,0-1.8,0-3.4
	c0-1.2-0.4-1.9-0.8-2.3c2.8-0.3,5.7-1.4,5.7-6.2c0-1.4-0.5-2.5-1.3-3.4c0.1-0.3,0.6-1.6-0.1-3.3c0,0-1-0.3-3.4,1.3
	c-1-0.3-2.1-0.4-3.1-0.4c-1.1,0-2.1,0.1-3.1,0.4c-2.4-1.6-3.4-1.3-3.4-1.3c-0.7,1.7-0.3,3-0.1,3.3c-0.8,0.9-1.3,2-1.3,3.4
	c0,4.8,2.9,5.9,5.7,6.2c-0.4,0.3-0.7,0.9-0.8,1.7c-0.7,0.3-2.5,0.9-3.6-1c0,0-0.7-1.2-1.9-1.3c0,0-1.2,0-0.1,0.8
	c0,0,0.8,0.4,1.4,1.8c0,0,0.7,2.2,4.2,1.5c0,1,0,2,0,2.3s-0.2,0.7-0.9,0.6c-5-1.7-8.5-6.3-8.5-11.9c0-6.9,5.6-12.5,12.5-12.5
	C219.4,0.3,225,5.9,225,12.8z M204.7,18.3c0-0.1,0-0.1-0.1-0.2c-0.1,0-0.2,0-0.2,0c0,0.1,0,0.1,0.1,0.2
	C204.6,18.3,204.7,18.3,204.7,18.3L204.7,18.3z M205.3,18.8c0.1-0.1,0-0.2,0-0.3c-0.1-0.1-0.2-0.1-0.3-0.1c-0.1,0.1,0,0.2,0,0.3
	C205.1,18.9,205.2,18.9,205.3,18.8L205.3,18.8z M205.7,19.6c0.1-0.1,0.1-0.2,0-0.3c-0.1-0.1-0.2-0.2-0.3-0.1s-0.1,0.2,0,0.3
	C205.5,19.6,205.7,19.6,205.7,19.6L205.7,19.6z M206.4,20.2c0.1-0.1,0-0.2-0.1-0.3c-0.1-0.1-0.3-0.1-0.3,0c-0.1,0.1,0,0.2,0.1,0.3
	S206.3,20.3,206.4,20.2L206.4,20.2z M207.3,20.7c0-0.1-0.1-0.2-0.2-0.3c-0.1,0-0.3,0-0.3,0.1s0.1,0.2,0.2,0.3
	C207.2,20.8,207.3,20.7,207.3,20.7L207.3,20.7z M208.4,20.7c0-0.1-0.1-0.2-0.3-0.2c-0.1,0-0.3,0.1-0.3,0.2s0.1,0.2,0.3,0.2
	C208.3,20.9,208.4,20.8,208.4,20.7L208.4,20.7z M209.3,20.6c0-0.1-0.2-0.2-0.3-0.1c-0.1,0-0.2,0.1-0.2,0.2s0.2,0.2,0.3,0.1
	C209.2,20.8,209.3,20.7,209.3,20.6L209.3,20.6z"/>
<path id="hover" fill="#B9E5F5" d="M225,37.8c0,5.5-3.6,10.2-8.5,11.9c-0.6,0.1-0.9-0.3-0.9-0.6c0-0.4,0-1.8,0-3.4
	c0-1.2-0.4-1.9-0.8-2.3c2.8-0.3,5.7-1.4,5.7-6.2c0-1.4-0.5-2.5-1.3-3.4c0.1-0.3,0.6-1.6-0.1-3.3c0,0-1-0.3-3.4,1.3
	c-1-0.3-2.1-0.4-3.1-0.4c-1.1,0-2.1,0.1-3.1,0.4c-2.4-1.6-3.4-1.3-3.4-1.3c-0.7,1.7-0.3,3-0.1,3.3c-0.8,0.9-1.3,2-1.3,3.4
	c0,4.8,2.9,5.9,5.7,6.2c-0.4,0.3-0.7,0.9-0.8,1.7c-0.7,0.3-2.5,0.9-3.6-1c0,0-0.7-1.2-1.9-1.3c0,0-1.2,0-0.1,0.8
	c0,0,0.8,0.4,1.4,1.8c0,0,0.7,2.2,4.2,1.5c0,1,0,2,0,2.3s-0.2,0.7-0.9,0.6c-5-1.7-8.5-6.3-8.5-11.9c0-6.9,5.6-12.5,12.5-12.5
	C219.4,25.3,225,30.9,225,37.8z M204.7,43.3c0-0.1,0-0.1-0.1-0.2c-0.1,0-0.2,0-0.2,0c0,0.1,0,0.1,0.1,0.2
	C204.6,43.3,204.7,43.3,204.7,43.3L204.7,43.3z M205.3,43.8c0.1-0.1,0-0.2,0-0.3c-0.1-0.1-0.2-0.1-0.3-0.1c-0.1,0.1,0,0.2,0,0.3
	C205.1,43.9,205.2,43.9,205.3,43.8L205.3,43.8z M205.7,44.6c0.1-0.1,0.1-0.2,0-0.3s-0.2-0.2-0.3-0.1c-0.1,0.1-0.1,0.2,0,0.3
	S205.7,44.6,205.7,44.6L205.7,44.6z M206.4,45.2c0.1-0.1,0-0.2-0.1-0.3s-0.3-0.1-0.3,0c-0.1,0.1,0,0.2,0.1,0.3
	S206.3,45.3,206.4,45.2L206.4,45.2z M207.3,45.7c0-0.1-0.1-0.2-0.2-0.3c-0.1,0-0.3,0-0.3,0.1s0.1,0.2,0.2,0.3
	C207.2,45.8,207.3,45.7,207.3,45.7L207.3,45.7z M208.4,45.7c0-0.1-0.1-0.2-0.3-0.2c-0.1,0-0.3,0.1-0.3,0.2c0,0.1,0.1,0.2,0.3,0.2
	C208.3,45.9,208.4,45.8,208.4,45.7L208.4,45.7z M209.3,45.6c0-0.1-0.2-0.2-0.3-0.1c-0.1,0-0.2,0.1-0.2,0.2c0,0.1,0.2,0.2,0.3,0.1
	C209.2,45.8,209.3,45.7,209.3,45.6L209.3,45.6z"/>
<path id="ios" fill="#FFFFFF" d="M188.6,26.6c0.1,7.6,6.6,10.1,6.7,10.1c-0.1,0.2-1,3.6-3.5,7.1c-2.1,3-4.2,6.1-7.7,6.1
	c-3.3,0.1-4.4-2-8.3-2c-3.8,0-5,1.9-8.2,2c-3.3,0.1-5.8-3.3-7.9-6.3c-4.3-6.2-7.6-17.5-3.2-25.2c2.2-3.8,6.1-6.2,10.4-6.3
	c3.2-0.1,6.3,2.2,8.3,2.2s5.7-2.7,9.6-2.3c1.6,0.1,6.2,0.7,9.1,5C193.8,17.2,188.6,20.2,188.6,26.6 M182.4,8c1.7-2.1,2.9-5.1,2.6-8
	c-2.5,0.1-5.6,1.7-7.4,3.8c-1.6,1.9-3,4.9-2.7,7.7C177.7,11.7,180.6,10.1,182.4,8"/>
<path id="frontend" fill="#FFFFFF" d="M148.6,4.8c-0.8-0.8-1.8-1.2-2.9-1.2h-41.2c-1.1,0-2.1,0.4-2.9,1.2s-1.2,1.8-1.2,2.9v28
	c0,1.1,0.4,2.1,1.2,2.9c0.8,0.8,1.8,1.2,2.9,1.2h14c0,0.7-0.1,1.3-0.4,2s-0.5,1.3-0.8,1.8s-0.4,0.9-0.4,1.1c0,0.4,0.2,0.8,0.5,1.2
	c0.3,0.3,0.7,0.5,1.2,0.5h13.2c0.4,0,0.8-0.2,1.2-0.5c0.3-0.3,0.5-0.7,0.5-1.2c0-0.2-0.1-0.6-0.4-1.1c-0.3-0.5-0.5-1.1-0.8-1.8
	s-0.4-1.4-0.4-2h14c1.1,0,2.1-0.4,2.9-1.2c0.8-0.8,1.2-1.8,1.2-2.9v-28C149.8,6.5,149.4,5.6,148.6,4.8z M146.5,29.1
	c0,0.2-0.1,0.4-0.2,0.6c-0.2,0.2-0.4,0.2-0.6,0.2h-41.2c-0.2,0-0.4-0.1-0.6-0.2c-0.2-0.2-0.2-0.4-0.2-0.6V7.7c0-0.2,0.1-0.4,0.2-0.6
	c0.2-0.2,0.4-0.2,0.6-0.2h41.2c0.2,0,0.4,0.1,0.6,0.2c0.2,0.2,0.2,0.4,0.2,0.6V29.1L146.5,29.1z M119.3,24.8l-9.1-5V17l9.1-4.9v3.2
	l-6.4,3.1l6.4,3.2V24.8z M120.8,26.5l6.1-16.2h1.9l-6.1,16.2H120.8z M130.8,24.8v-3.2l6.4-3.1l-6.4-3.1v-3.2l9.1,5v2.7L130.8,24.8z"
	/>
<path id="backend" fill="#FFFFFF" d="M74.4,28.8l2.9-2.9l-3-3l-2.9,2.9c-1.2-0.8-2.6-1.4-4.1-1.7V20h-4.2v4.1
	c-1.5,0.3-2.9,0.9-4.1,1.7L56.2,23l-3,3l2.9,2.9c-0.8,1.2-1.4,2.6-1.7,4.1h-4.1v4.2h4.1c0.3,1.5,0.9,2.9,1.7,4.1l-2.9,2.9l3,3
	l2.9-2.9c1.2,0.8,2.6,1.4,4.1,1.7v4h4.2v-4.1c1.5-0.3,2.9-0.9,4.1-1.7l2.9,2.9l3-3l-2.9-2.9c0.8-1.2,1.4-2.6,1.7-4.1h4.1v-4.2h-4.1
	C75.8,31.4,75.3,30.1,74.4,28.8z M65.3,39.6c-2.5,0-4.6-2.1-4.6-4.6s2.1-4.6,4.6-4.6s4.6,2,4.6,4.6C69.8,37.6,67.8,39.6,65.3,39.6z
	 M98.7,32.8L98.7,32.8L78.3,12.3V2.6L68.4,0l-1.1,1l5.3,5.2l-5.1,5.1l-5.3-5.2l-1.1,1l2.7,9.9h9.4l-0.1,0.1l20.6,20.7l0,0
	c1.4,1.3,3.6,1.3,4.9,0C100.1,36.4,100.1,34.2,98.7,32.8z M97.4,36.5c-0.6,0.6-1.6,0.6-2.2,0s-0.6-1.6,0-2.2c0.6-0.6,1.6-0.6,2.2,0
	C98,34.9,98,35.9,97.4,36.5z"/>
<path id="android" fill="#FFFFFF" d="M42.9,16.4c1.7,0,3.1,1.4,3.1,3.1v12.8c0,1.7-1.4,3.1-3.1,3.1c-1.7,0-3.1-1.4-3.1-3.1V19.5
	C39.8,17.8,41.2,16.4,42.9,16.4z M7.1,16.4c1.7,0,3.1,1.4,3.1,3.1v12.8c0,1.7-1.4,3.1-3.1,3.1C5.4,35.4,4,34,4,32.3V19.5
	C4,17.8,5.4,16.4,7.1,16.4z M11.2,16.9v20c0,1.8,1.5,3.3,3.3,3.3h1.9V47c0,1.7,1.4,3.1,3.1,3.1s3.1-1.4,3.1-3.1v-6.8h4.8V47
	c0,1.7,1.4,3.1,3.1,3.1c1.7,0,3.1-1.4,3.1-3.1v-6.8h1.7c1.8,0,3.3-1.5,3.3-3.3v-20C38.6,16.9,11.2,16.9,11.2,16.9z M31.6,4.5
	l2.1-3.8c0.1-0.2,0-0.5-0.2-0.6S33,0,32.9,0.3l-2.2,3.9C29,3.4,27.1,3,25,3c-2,0-3.9,0.4-5.6,1.1l-2.1-3.8C17.2,0,16.9,0,16.7,0.1
	c-0.2,0.1-0.3,0.4-0.2,0.6l2.1,3.8c-4.4,2.1-7.4,6.3-7.4,11.2h27.6C38.8,10.8,35.9,6.6,31.6,4.5z M18.7,10.8c-0.7,0-1.2-0.5-1.2-1.2
	s0.5-1.2,1.2-1.2s1.2,0.5,1.2,1.2C19.9,10.3,19.3,10.8,18.7,10.8z M31.4,10.8c-0.7,0-1.2-0.5-1.2-1.2s0.5-1.2,1.2-1.2
	c0.7,0,1.2,0.5,1.2,1.2S32.1,10.8,31.4,10.8z"/>
</svg>
