<?xml version="1.0" encoding="utf-8"?>
<!-- Generator: Adobe Illustrator 19.2.1, SVG Export Plug-In . SVG Version: 6.00 Build 0)  -->
<svg version="1.1" id="icons" xmlns="http://www.w3.org/2000/svg" xmlns:xlink="http://www.w3.org/1999/xlink" x="0px" y="0px"
	 width="338px" height="50px" viewBox="0 0 338 50" style="enable-background:new 0 0 338 50;" xml:space="preserve">
<style type="text/css">
	.st0{fill:#CCCCCC;}
	.st1{fill:#185772;}
	.st2{fill:#F7B74B;}
	.st3{fill:#C32B3F;}
	.st4{fill:#9BB956;}
	.st5{fill:#B9E5F5;}
	.st6{fill:#FFFFFF;}
</style>
<path id="fork" class="st0" d="M332.7,13.6c-0.3-0.3-0.6-0.4-1.1-0.4c-0.4,0-0.8,0.1-1.1,0.4c-0.3,0.3-0.4,0.6-0.4,1.1
	c0,0.3,0.1,0.5,0.2,0.8c0.1,0.2,0.3,0.4,0.5,0.5c0,0.3,0,0.5-0.1,0.7c0,0.2-0.1,0.4-0.2,0.5c-0.1,0.2-0.2,0.3-0.3,0.4
	s-0.3,0.2-0.5,0.3c-0.2,0.1-0.4,0.2-0.6,0.2c-0.2,0.1-0.4,0.1-0.7,0.2c-0.5,0.2-0.9,0.3-1.2,0.4v-3.9c0.2-0.1,0.4-0.3,0.5-0.5
	c0.1-0.2,0.2-0.5,0.2-0.8c0-0.4-0.1-0.8-0.4-1.1c-0.3-0.3-0.6-0.4-1.1-0.4c-0.4,0-0.8,0.1-1.1,0.4c-0.3,0.3-0.4,0.6-0.4,1.1
	c0,0.3,0.1,0.5,0.2,0.8c0.1,0.2,0.3,0.4,0.5,0.5v6.3c-0.2,0.1-0.4,0.3-0.5,0.5c-0.1,0.2-0.2,0.5-0.2,0.8c0,0.4,0.1,0.8,0.4,1.1
	c0.3,0.3,0.6,0.4,1.1,0.4c0.4,0,0.8-0.1,1.1-0.4c0.3-0.3,0.4-0.6,0.4-1.1c0-0.3-0.1-0.5-0.2-0.8c-0.1-0.2-0.3-0.4-0.5-0.5l0,0
	c0-0.4,0.1-0.6,0.3-0.8c0.2-0.2,0.7-0.3,1.3-0.6c0.7-0.2,1.2-0.4,1.6-0.6c1.2-0.7,1.8-1.7,1.8-3.2c0.2-0.1,0.4-0.3,0.5-0.5
	c0.1-0.2,0.2-0.5,0.2-0.8C333.1,14.3,332.9,13.9,332.7,13.6z M327.2,23.1c-0.1,0.1-0.3,0.2-0.5,0.2s-0.4-0.1-0.5-0.2
	c-0.1-0.1-0.2-0.3-0.2-0.5c0-0.2,0.1-0.4,0.2-0.5c0.1-0.1,0.3-0.2,0.5-0.2s0.4,0.1,0.5,0.2c0.1,0.1,0.2,0.3,0.2,0.5
	C327.4,22.8,327.4,23,327.2,23.1z M327.2,14.2c-0.1,0.1-0.3,0.2-0.5,0.2s-0.4-0.1-0.5-0.2s-0.2-0.3-0.2-0.5s0.1-0.4,0.2-0.5
	c0.1-0.1,0.3-0.2,0.5-0.2s0.4,0.1,0.5,0.2c0.1,0.1,0.2,0.3,0.2,0.5S327.4,14.1,327.2,14.2z M332.1,15.2c-0.1,0.1-0.3,0.2-0.5,0.2
	s-0.4-0.1-0.5-0.2c-0.1-0.1-0.2-0.3-0.2-0.5c0-0.2,0.1-0.4,0.2-0.5c0.1-0.1,0.3-0.2,0.5-0.2s0.4,0.1,0.5,0.2s0.2,0.3,0.2,0.5
	C332.3,14.9,332.3,15.1,332.1,15.2z"/>
<path id="star" class="st0" d="M337,4l-3.3-0.3c-0.2,0-0.4-0.2-0.5-0.4L332,0.4c-0.2-0.5-0.9-0.5-1.1,0l-1.2,2.9
	c-0.1,0.2-0.3,0.3-0.5,0.4L325.9,4c-0.5,0-0.7,0.7-0.3,1l2.5,2.2c0.2,0.1,0.2,0.4,0.2,0.6l-0.7,3.1c-0.1,0.5,0.4,0.9,0.8,0.6
	l2.8-1.6c0.2-0.1,0.4-0.1,0.6,0l2.8,1.6c0.4,0.3,1-0.1,0.8-0.6l-0.7-3.1c0-0.2,0-0.4,0.2-0.6l2.5-2.2C337.7,4.6,337.5,4,337,4z"/>
<path id="web" class="st1" d="M324.9,12.7c0,5.5-3.6,10.2-8.5,11.9c-0.6,0.1-0.9-0.3-0.9-0.6c0-0.4,0-1.8,0-3.4
	c0-1.2-0.4-1.9-0.8-2.3c2.8-0.3,5.7-1.4,5.7-6.2c0-1.4-0.5-2.5-1.3-3.4c0.1-0.3,0.6-1.6-0.1-3.3c0,0-1-0.3-3.4,1.3
	c-1-0.3-2.1-0.4-3.1-0.4c-1.1,0-2.1,0.1-3.1,0.4C307,5.1,306,5.4,306,5.4c-0.7,1.7-0.3,3-0.1,3.3c-0.8,0.9-1.3,2-1.3,3.4
	c0,4.8,2.9,5.9,5.7,6.2c-0.4,0.3-0.7,0.9-0.8,1.7c-0.7,0.3-2.5,0.9-3.6-1c0,0-0.7-1.2-1.9-1.3c0,0-1.2,0-0.1,0.8
	c0,0,0.8,0.4,1.4,1.8c0,0,0.7,2.2,4.2,1.5c0,1,0,2,0,2.3s-0.2,0.7-0.9,0.6c-5-1.7-8.5-6.3-8.5-11.9c0-6.9,5.6-12.5,12.5-12.5
	C319.3,0.2,324.9,5.8,324.9,12.7z M304.6,18.2c0-0.1,0-0.1-0.1-0.2c-0.1,0-0.2,0-0.2,0c0,0.1,0,0.1,0.1,0.2
	C304.5,18.2,304.6,18.2,304.6,18.2L304.6,18.2z M305.2,18.7c0.1-0.1,0-0.2,0-0.3c-0.1-0.1-0.2-0.1-0.3-0.1c-0.1,0.1,0,0.2,0,0.3
	C305,18.8,305.1,18.8,305.2,18.7L305.2,18.7z M305.6,19.5c0.1-0.1,0.1-0.2,0-0.3c-0.1-0.1-0.2-0.2-0.3-0.1c-0.1,0.1-0.1,0.2,0,0.3
	C305.4,19.5,305.6,19.5,305.6,19.5L305.6,19.5z M306.3,20.1c0.1-0.1,0-0.2-0.1-0.3c-0.1-0.1-0.3-0.1-0.3,0c-0.1,0.1,0,0.2,0.1,0.3
	C306.1,20.2,306.2,20.2,306.3,20.1L306.3,20.1z M307.2,20.6c0-0.1-0.1-0.2-0.2-0.3c-0.1,0-0.3,0-0.3,0.1s0.1,0.2,0.2,0.3
	C307.1,20.7,307.2,20.6,307.2,20.6L307.2,20.6z M308.3,20.6c0-0.1-0.1-0.2-0.3-0.2c-0.1,0-0.3,0.1-0.3,0.2s0.1,0.2,0.3,0.2
	C308.2,20.8,308.3,20.7,308.3,20.6L308.3,20.6z M309.2,20.5c0-0.1-0.2-0.2-0.3-0.1c-0.1,0-0.2,0.1-0.2,0.2s0.2,0.2,0.3,0.1
	C309.1,20.7,309.2,20.6,309.2,20.5L309.2,20.5z"/>
<path id="ios_1_" class="st2" d="M299.9,37.7c0,5.5-3.6,10.2-8.5,11.9c-0.6,0.1-0.9-0.3-0.9-0.6c0-0.4,0-1.8,0-3.4
	c0-1.2-0.4-1.9-0.8-2.3c2.8-0.3,5.7-1.4,5.7-6.2c0-1.4-0.5-2.5-1.3-3.4c0.1-0.3,0.6-1.6-0.1-3.3c0,0-1-0.3-3.4,1.3
	c-1-0.3-2.1-0.4-3.1-0.4c-1.1,0-2.1,0.1-3.1,0.4c-2.4-1.6-3.4-1.3-3.4-1.3c-0.7,1.7-0.3,3-0.1,3.3c-0.8,0.9-1.3,2-1.3,3.4
	c0,4.8,2.9,5.9,5.7,6.2c-0.4,0.3-0.7,0.9-0.8,1.7c-0.7,0.3-2.5,0.9-3.6-1c0,0-0.7-1.2-1.9-1.3c0,0-1.2,0-0.1,0.8
	c0,0,0.8,0.4,1.4,1.8c0,0,0.7,2.2,4.2,1.5c0,1,0,2,0,2.3s-0.2,0.7-0.9,0.6c-5-1.7-8.5-6.3-8.5-11.9c0-6.9,5.6-12.5,12.5-12.5
	C294.3,25.2,299.9,30.8,299.9,37.7z M279.6,43.2c0-0.1,0-0.1-0.1-0.2c-0.1,0-0.2,0-0.2,0c0,0.1,0,0.1,0.1,0.2
	C279.5,43.2,279.6,43.2,279.6,43.2L279.6,43.2z M280.1,43.7c0.1-0.1,0-0.2,0-0.3c-0.1-0.1-0.2-0.1-0.3-0.1c-0.1,0.1,0,0.2,0,0.3
	C280,43.8,280.1,43.8,280.1,43.7L280.1,43.7z M280.6,44.5c0.1-0.1,0.1-0.2,0-0.3s-0.2-0.2-0.3-0.1c-0.1,0.1-0.1,0.2,0,0.3
	S280.6,44.5,280.6,44.5L280.6,44.5z M281.3,45.1c0.1-0.1,0-0.2-0.1-0.3s-0.3-0.1-0.3,0c-0.1,0.1,0,0.2,0.1,0.3
	S281.2,45.2,281.3,45.1L281.3,45.1z M282.2,45.6c0-0.1-0.1-0.2-0.2-0.3c-0.1,0-0.3,0-0.3,0.1s0.1,0.2,0.2,0.3
	C282.1,45.7,282.2,45.6,282.2,45.6L282.2,45.6z M283.3,45.6c0-0.1-0.1-0.2-0.3-0.2c-0.1,0-0.3,0.1-0.3,0.2c0,0.1,0.1,0.2,0.3,0.2
	C283.1,45.8,283.3,45.7,283.3,45.6L283.3,45.6z M284.2,45.5c0-0.1-0.2-0.2-0.3-0.1c-0.1,0-0.2,0.1-0.2,0.2c0,0.1,0.2,0.2,0.3,0.1
	C284.1,45.7,284.2,45.6,284.2,45.5L284.2,45.5z"/>
<path id="backend_1_" class="st3" d="M299.9,12.7c0,5.5-3.6,10.2-8.5,11.9c-0.6,0.1-0.9-0.3-0.9-0.6c0-0.4,0-1.8,0-3.4
	c0-1.2-0.4-1.9-0.8-2.3c2.8-0.3,5.7-1.4,5.7-6.2c0-1.4-0.5-2.5-1.3-3.4c0.1-0.3,0.6-1.6-0.1-3.3c0,0-1-0.3-3.4,1.3
	c-1-0.3-2.1-0.4-3.1-0.4c-1.1,0-2.1,0.1-3.1,0.4C282,5.1,281,5.4,281,5.4c-0.7,1.7-0.3,3-0.1,3.3c-0.8,0.9-1.3,2-1.3,3.4
	c0,4.8,2.9,5.9,5.7,6.2c-0.4,0.3-0.7,0.9-0.8,1.7c-0.7,0.3-2.5,0.9-3.6-1c0,0-0.7-1.2-1.9-1.3c0,0-1.2,0-0.1,0.8
	c0,0,0.8,0.4,1.4,1.8c0,0,0.7,2.2,4.2,1.5c0,1,0,2,0,2.3s-0.2,0.7-0.9,0.6c-5-1.7-8.5-6.3-8.5-11.9c0-6.9,5.6-12.5,12.5-12.5
	C294.3,0.2,299.9,5.8,299.9,12.7z M279.6,18.2c0-0.1,0-0.1-0.1-0.2c-0.1,0-0.2,0-0.2,0c0,0.1,0,0.1,0.1,0.2
	C279.5,18.2,279.6,18.2,279.6,18.2L279.6,18.2z M280.1,18.7c0.1-0.1,0-0.2,0-0.3c-0.1-0.1-0.2-0.1-0.3-0.1c-0.1,0.1,0,0.2,0,0.3
	C280,18.8,280.1,18.8,280.1,18.7L280.1,18.7z M280.6,19.5c0.1-0.1,0.1-0.2,0-0.3c-0.1-0.1-0.2-0.2-0.3-0.1s-0.1,0.2,0,0.3
	C280.4,19.5,280.6,19.5,280.6,19.5L280.6,19.5z M281.3,20.1c0.1-0.1,0-0.2-0.1-0.3c-0.1-0.1-0.3-0.1-0.3,0c-0.1,0.1,0,0.2,0.1,0.3
	S281.2,20.2,281.3,20.1L281.3,20.1z M282.2,20.6c0-0.1-0.1-0.2-0.2-0.3c-0.1,0-0.3,0-0.3,0.1s0.1,0.2,0.2,0.3
	C282.1,20.7,282.2,20.6,282.2,20.6L282.2,20.6z M283.3,20.6c0-0.1-0.1-0.2-0.3-0.2c-0.1,0-0.3,0.1-0.3,0.2s0.1,0.2,0.3,0.2
	C283.1,20.8,283.3,20.7,283.3,20.6L283.3,20.6z M284.2,20.5c0-0.1-0.2-0.2-0.3-0.1c-0.1,0-0.2,0.1-0.2,0.2s0.2,0.2,0.3,0.1
	C284.1,20.7,284.2,20.6,284.2,20.5L284.2,20.5z"/>
<path id="android_1_" class="st4" d="M274.9,12.7c0,5.5-3.6,10.2-8.5,11.9c-0.6,0.1-0.9-0.3-0.9-0.6c0-0.4,0-1.8,0-3.4
	c0-1.2-0.4-1.9-0.8-2.3c2.8-0.3,5.7-1.4,5.7-6.2c0-1.4-0.5-2.5-1.3-3.4c0.1-0.3,0.6-1.6-0.1-3.3c0,0-1-0.3-3.4,1.3
	c-1-0.3-2.1-0.4-3.1-0.4c-1.1,0-2.1,0.1-3.1,0.4C257,5.1,256,5.4,256,5.4c-0.7,1.7-0.3,3-0.1,3.3c-0.8,0.9-1.3,2-1.3,3.4
	c0,4.8,2.9,5.9,5.7,6.2c-0.4,0.3-0.7,0.9-0.8,1.7c-0.7,0.3-2.5,0.9-3.6-1c0,0-0.7-1.2-1.9-1.3c0,0-1.2,0-0.1,0.8
	c0,0,0.8,0.4,1.4,1.8c0,0,0.7,2.2,4.2,1.5c0,1,0,2,0,2.3s-0.2,0.7-0.9,0.6c-5-1.7-8.5-6.3-8.5-11.9c0-6.9,5.6-12.5,12.5-12.5
	C269.3,0.2,274.9,5.8,274.9,12.7z M254.6,18.2c0-0.1,0-0.1-0.1-0.2c-0.1,0-0.2,0-0.2,0c0,0.1,0,0.1,0.1,0.2
	C254.5,18.2,254.6,18.2,254.6,18.2L254.6,18.2z M255.2,18.7c0.1-0.1,0-0.2,0-0.3c-0.1-0.1-0.2-0.1-0.3-0.1c-0.1,0.1,0,0.2,0,0.3
	C255,18.8,255.1,18.8,255.2,18.7L255.2,18.7z M255.6,19.5c0.1-0.1,0.1-0.2,0-0.3c-0.1-0.1-0.2-0.2-0.3-0.1s-0.1,0.2,0,0.3
	C255.4,19.5,255.6,19.5,255.6,19.5L255.6,19.5z M256.3,20.1c0.1-0.1,0-0.2-0.1-0.3c-0.1-0.1-0.3-0.1-0.3,0c-0.1,0.1,0,0.2,0.1,0.3
	C256.1,20.2,256.2,20.2,256.3,20.1L256.3,20.1z M257.2,20.6c0-0.1-0.1-0.2-0.2-0.3c-0.1,0-0.3,0-0.3,0.1s0.1,0.2,0.2,0.3
	C257.1,20.7,257.2,20.6,257.2,20.6L257.2,20.6z M258.3,20.6c0-0.1-0.1-0.2-0.3-0.2c-0.1,0-0.3,0.1-0.3,0.2s0.1,0.2,0.3,0.2
	C258.2,20.8,258.3,20.7,258.3,20.6L258.3,20.6z M259.2,20.5c0-0.1-0.2-0.2-0.3-0.1c-0.1,0-0.2,0.1-0.2,0.2s0.2,0.2,0.3,0.1
	C259.1,20.7,259.2,20.6,259.2,20.5L259.2,20.5z"/>
<path id="hover" class="st5" d="M274.9,37.7c0,5.5-3.6,10.2-8.5,11.9c-0.6,0.1-0.9-0.3-0.9-0.6c0-0.4,0-1.8,0-3.4
	c0-1.2-0.4-1.9-0.8-2.3c2.8-0.3,5.7-1.4,5.7-6.2c0-1.4-0.5-2.5-1.3-3.4c0.1-0.3,0.6-1.6-0.1-3.3c0,0-1-0.3-3.4,1.3
	c-1-0.3-2.1-0.4-3.1-0.4c-1.1,0-2.1,0.1-3.1,0.4c-2.4-1.6-3.4-1.3-3.4-1.3c-0.7,1.7-0.3,3-0.1,3.3c-0.8,0.9-1.3,2-1.3,3.4
	c0,4.8,2.9,5.9,5.7,6.2c-0.4,0.3-0.7,0.9-0.8,1.7c-0.7,0.3-2.5,0.9-3.6-1c0,0-0.7-1.2-1.9-1.3c0,0-1.2,0-0.1,0.8
	c0,0,0.8,0.4,1.4,1.8c0,0,0.7,2.2,4.2,1.5c0,1,0,2,0,2.3s-0.2,0.7-0.9,0.6c-5-1.7-8.5-6.3-8.5-11.9c0-6.9,5.6-12.5,12.5-12.5
	C269.3,25.2,274.9,30.8,274.9,37.7z M254.6,43.2c0-0.1,0-0.1-0.1-0.2c-0.1,0-0.2,0-0.2,0c0,0.1,0,0.1,0.1,0.2
	C254.5,43.2,254.6,43.2,254.6,43.2L254.6,43.2z M255.2,43.7c0.1-0.1,0-0.2,0-0.3c-0.1-0.1-0.2-0.1-0.3-0.1c-0.1,0.1,0,0.2,0,0.3
	C255,43.8,255.1,43.8,255.2,43.7L255.2,43.7z M255.6,44.5c0.1-0.1,0.1-0.2,0-0.3s-0.2-0.2-0.3-0.1c-0.1,0.1-0.1,0.2,0,0.3
	S255.6,44.5,255.6,44.5L255.6,44.5z M256.3,45.1c0.1-0.1,0-0.2-0.1-0.3s-0.3-0.1-0.3,0c-0.1,0.1,0,0.2,0.1,0.3
	S256.2,45.2,256.3,45.1L256.3,45.1z M257.2,45.6c0-0.1-0.1-0.2-0.2-0.3c-0.1,0-0.3,0-0.3,0.1s0.1,0.2,0.2,0.3
	C257.1,45.7,257.2,45.6,257.2,45.6L257.2,45.6z M258.3,45.6c0-0.1-0.1-0.2-0.3-0.2c-0.1,0-0.3,0.1-0.3,0.2c0,0.1,0.1,0.2,0.3,0.2
	C258.2,45.8,258.3,45.7,258.3,45.6L258.3,45.6z M259.2,45.5c0-0.1-0.2-0.2-0.3-0.1c-0.1,0-0.2,0.1-0.2,0.2c0,0.1,0.2,0.2,0.3,0.1
	C259.1,45.7,259.2,45.6,259.2,45.5L259.2,45.5z"/>
<path id="ios" class="st6" d="M188.6,26.6c0.1,7.6,6.6,10.1,6.7,10.1c-0.1,0.2-1,3.6-3.5,7.1c-2.1,3-4.2,6.1-7.7,6.1
	c-3.3,0.1-4.4-2-8.3-2c-3.8,0-5,1.9-8.2,2c-3.3,0.1-5.8-3.3-7.9-6.3c-4.3-6.2-7.6-17.5-3.2-25.2c2.2-3.8,6.1-6.2,10.4-6.3
	c3.2-0.1,6.3,2.2,8.3,2.2s5.7-2.7,9.6-2.3c1.6,0.1,6.2,0.7,9.1,5C193.8,17.2,188.6,20.2,188.6,26.6 M182.4,8c1.7-2.1,2.9-5.1,2.6-8
	c-2.5,0.1-5.6,1.7-7.4,3.8c-1.6,1.9-3,4.9-2.7,7.7C177.7,11.7,180.6,10.1,182.4,8"/>
<path id="frontend" class="st6" d="M148.6,4.8c-0.8-0.8-1.8-1.2-2.9-1.2h-41.2c-1.1,0-2.1,0.4-2.9,1.2s-1.2,1.8-1.2,2.9v28
	c0,1.1,0.4,2.1,1.2,2.9c0.8,0.8,1.8,1.2,2.9,1.2h14c0,0.7-0.1,1.3-0.4,2s-0.5,1.3-0.8,1.8s-0.4,0.9-0.4,1.1c0,0.4,0.2,0.8,0.5,1.2
	c0.3,0.3,0.7,0.5,1.2,0.5h13.2c0.4,0,0.8-0.2,1.2-0.5c0.3-0.3,0.5-0.7,0.5-1.2c0-0.2-0.1-0.6-0.4-1.1c-0.3-0.5-0.5-1.1-0.8-1.8
	s-0.4-1.4-0.4-2h14c1.1,0,2.1-0.4,2.9-1.2c0.8-0.8,1.2-1.8,1.2-2.9v-28C149.8,6.5,149.4,5.6,148.6,4.8z M146.5,29.1
	c0,0.2-0.1,0.4-0.2,0.6c-0.2,0.2-0.4,0.2-0.6,0.2h-41.2c-0.2,0-0.4-0.1-0.6-0.2c-0.2-0.2-0.2-0.4-0.2-0.6V7.7c0-0.2,0.1-0.4,0.2-0.6
	c0.2-0.2,0.4-0.2,0.6-0.2h41.2c0.2,0,0.4,0.1,0.6,0.2c0.2,0.2,0.2,0.4,0.2,0.6V29.1L146.5,29.1z M119.3,24.8l-9.1-5V17l9.1-4.9v3.2
	l-6.4,3.1l6.4,3.2V24.8z M120.8,26.5l6.1-16.2h1.9l-6.1,16.2H120.8z M130.8,24.8v-3.2l6.4-3.1l-6.4-3.1v-3.2l9.1,5v2.7L130.8,24.8z"
	/>
<path id="backend" class="st6" d="M74.4,28.8l2.9-2.9l-3-3l-2.9,2.9c-1.2-0.8-2.6-1.4-4.1-1.7V20h-4.2v4.1c-1.5,0.3-2.9,0.9-4.1,1.7
	L56.2,23l-3,3l2.9,2.9c-0.8,1.2-1.4,2.6-1.7,4.1h-4.1v4.2h4.1c0.3,1.5,0.9,2.9,1.7,4.1l-2.9,2.9l3,3l2.9-2.9
	c1.2,0.8,2.6,1.4,4.1,1.7v4h4.2v-4.1c1.5-0.3,2.9-0.9,4.1-1.7l2.9,2.9l3-3l-2.9-2.9c0.8-1.2,1.4-2.6,1.7-4.1h4.1v-4.2h-4.1
	C75.8,31.4,75.3,30.1,74.4,28.8z M65.3,39.6c-2.5,0-4.6-2.1-4.6-4.6s2.1-4.6,4.6-4.6s4.6,2,4.6,4.6C69.8,37.6,67.8,39.6,65.3,39.6z
	 M98.7,32.8L98.7,32.8L78.3,12.3V2.6L68.4,0l-1.1,1l5.3,5.2l-5.1,5.1l-5.3-5.2l-1.1,1l2.7,9.9h9.4l-0.1,0.1l20.6,20.7l0,0
	c1.4,1.3,3.6,1.3,4.9,0C100.1,36.4,100.1,34.2,98.7,32.8z M97.4,36.5c-0.6,0.6-1.6,0.6-2.2,0s-0.6-1.6,0-2.2c0.6-0.6,1.6-0.6,2.2,0
	C98,34.9,98,35.9,97.4,36.5z"/>
<path id="android" class="st6" d="M42.9,16.4c1.7,0,3.1,1.4,3.1,3.1v12.8c0,1.7-1.4,3.1-3.1,3.1c-1.7,0-3.1-1.4-3.1-3.1V19.5
	C39.8,17.8,41.2,16.4,42.9,16.4z M7.1,16.4c1.7,0,3.1,1.4,3.1,3.1v12.8c0,1.7-1.4,3.1-3.1,3.1C5.4,35.4,4,34,4,32.3V19.5
	C4,17.8,5.4,16.4,7.1,16.4z M11.2,16.9v20c0,1.8,1.5,3.3,3.3,3.3h1.9V47c0,1.7,1.4,3.1,3.1,3.1s3.1-1.4,3.1-3.1v-6.8h4.8V47
	c0,1.7,1.4,3.1,3.1,3.1c1.7,0,3.1-1.4,3.1-3.1v-6.8h1.7c1.8,0,3.3-1.5,3.3-3.3v-20C38.6,16.9,11.2,16.9,11.2,16.9z M31.6,4.5
	l2.1-3.8c0.1-0.2,0-0.5-0.2-0.6S33,0,32.9,0.3l-2.2,3.9C29,3.4,27.1,3,25,3c-2,0-3.9,0.4-5.6,1.1l-2.1-3.8C17.2,0,16.9,0,16.7,0.1
	c-0.2,0.1-0.3,0.4-0.2,0.6l2.1,3.8c-4.4,2.1-7.4,6.3-7.4,11.2h27.6C38.8,10.8,35.9,6.6,31.6,4.5z M18.7,10.8c-0.7,0-1.2-0.5-1.2-1.2
	s0.5-1.2,1.2-1.2s1.2,0.5,1.2,1.2C19.9,10.3,19.3,10.8,18.7,10.8z M31.4,10.8c-0.7,0-1.2-0.5-1.2-1.2s0.5-1.2,1.2-1.2
	c0.7,0,1.2,0.5,1.2,1.2S32.1,10.8,31.4,10.8z"/>
<g>
	<g>
		<path class="st6" d="M244.2,41.3l-13.2-24.6V4.2h1.3c0.6,0,1-0.5,1-1V1c0-0.6-0.5-1-1-1h-1.3h-13.4h-1.2c-0.6,0-1,0.5-1,1v2.1
			c0,0.6,0.5,1,1,1h1.2v12.5l-12.1,24.5c-3.1,4.9-0.9,8.8,4.8,8.8h29.2C245.3,50,247.4,46.1,244.2,41.3z M221.5,18.5l0.4-0.9v-1V4.2
			h5v12.5v1l0.5,0.9l5.6,10.6h-16.9L221.5,18.5z"/>
	</g>
</g>
<path id="web_1_" class="st6" d="M324.9,37.7c0,5.5-3.6,10.2-8.5,11.9c-0.6,0.1-0.9-0.3-0.9-0.6c0-0.4,0-1.8,0-3.4
	c0-1.2-0.4-1.9-0.8-2.3c2.8-0.3,5.7-1.4,5.7-6.2c0-1.4-0.5-2.5-1.3-3.4c0.1-0.3,0.6-1.6-0.1-3.3c0,0-1-0.3-3.4,1.3
	c-1-0.3-2.1-0.4-3.1-0.4c-1.1,0-2.1,0.1-3.1,0.4c-2.4-1.6-3.4-1.3-3.4-1.3c-0.7,1.7-0.3,3-0.1,3.3c-0.8,0.9-1.3,2-1.3,3.4
	c0,4.8,2.9,5.9,5.7,6.2c-0.4,0.3-0.7,0.9-0.8,1.7c-0.7,0.3-2.5,0.9-3.6-1c0,0-0.7-1.2-1.9-1.3c0,0-1.2,0-0.1,0.8
	c0,0,0.8,0.4,1.4,1.8c0,0,0.7,2.2,4.2,1.5c0,1,0,2,0,2.3s-0.2,0.7-0.9,0.6c-5-1.7-8.5-6.3-8.5-11.9c0-6.9,5.6-12.5,12.5-12.5
	C319.3,25.2,324.9,30.8,324.9,37.7z M304.6,43.2c0-0.1,0-0.1-0.1-0.2c-0.1,0-0.2,0-0.2,0c0,0.1,0,0.1,0.1,0.2
	C304.5,43.2,304.6,43.2,304.6,43.2L304.6,43.2z M305.2,43.7c0.1-0.1,0-0.2,0-0.3c-0.1-0.1-0.2-0.1-0.3-0.1c-0.1,0.1,0,0.2,0,0.3
	C305,43.8,305.1,43.8,305.2,43.7L305.2,43.7z M305.6,44.5c0.1-0.1,0.1-0.2,0-0.3s-0.2-0.2-0.3-0.1c-0.1,0.1-0.1,0.2,0,0.3
	C305.4,44.5,305.6,44.5,305.6,44.5L305.6,44.5z M306.3,45.1c0.1-0.1,0-0.2-0.1-0.3c-0.1-0.1-0.3-0.1-0.3,0c-0.1,0.1,0,0.2,0.1,0.3
	C306.1,45.2,306.2,45.2,306.3,45.1L306.3,45.1z M307.2,45.6c0-0.1-0.1-0.2-0.2-0.3c-0.1,0-0.3,0-0.3,0.1c0,0.1,0.1,0.2,0.2,0.3
	C307.1,45.7,307.2,45.6,307.2,45.6L307.2,45.6z M308.3,45.6c0-0.1-0.1-0.2-0.3-0.2c-0.1,0-0.3,0.1-0.3,0.2c0,0.1,0.1,0.2,0.3,0.2
	C308.2,45.8,308.3,45.7,308.3,45.6L308.3,45.6z M309.2,45.5c0-0.1-0.2-0.2-0.3-0.1c-0.1,0-0.2,0.1-0.2,0.2c0,0.1,0.2,0.2,0.3,0.1
	C309.1,45.7,309.2,45.6,309.2,45.5L309.2,45.5z"/>
</svg>
